<svg width="36" height="36" viewBox="0 0 36 36" fill="none" xmlns="http://www.w3.org/2000/svg">
<path d="M0 6C0 2.68629 2.68629 0 6 0H30C33.3137 0 36 2.68629 36 6V30C36 33.3137 33.3137 36 30 36H6C2.68629 36 0 33.3137 0 30V6Z" fill="#E7E8EC"/>
<path d="M24.75 24C24.75 24.1989 24.671 24.3897 24.5303 24.5303C24.3897 24.671 24.1989 24.75 24 24.75C23.8011 24.75 23.6103 24.671 23.4697 24.5303C23.329 24.3897 23.25 24.1989 23.25 24C23.25 23.8011 23.329 23.6103 23.4697 23.4697C23.6103 23.329 23.8011 23.25 24 23.25C24.1989 23.25 24.3897 23.329 24.5303 23.4697C24.671 23.6103 24.75 23.8011 24.75 24ZM22 24C22 24.5304 22.2107 25.0391 22.5858 25.4142C22.9609 25.7893 23.4696 26 24 26C24.5304 26 25.0391 25.7893 25.4142 25.4142C25.7893 25.0391 26 24.5304 26 24C26 23.4696 25.7893 22.9609 25.4142 22.5858C25.0391 22.2107 24.5304 22 24 22C23.4696 22 22.9609 22.2107 22.5858 22.5858C22.2107 22.9609 22 23.4696 22 24ZM10 21C10 23.0719 11.6781 24.75 13.75 24.75H18V25.4406C18 25.75 18.25 26 18.5594 26C18.6844 26 18.8031 25.9594 18.9031 25.8813L20.8031 24.4031C20.9281 24.3063 21 24.1562 21 24C21 23.8438 20.9281 23.6937 20.8031 23.5969L18.9031 22.1188C18.8062 22.0438 18.6844 22 18.5594 22C18.25 22 18 22.25 18 22.5594V23.25H13.75C12.5062 23.25 11.5 22.2438 11.5 21C11.5 19.7562 12.5062 18.75 13.75 18.75H22.25C24.3219 18.75 26 17.0719 26 15C26 13.1406 24.6469 11.6 22.875 11.3031C22.5906 10.5438 21.8594 10 21 10C19.8969 10 19 10.8969 19 12C19 13.1031 19.8969 14 21 14C21.8094 14 22.5094 13.5188 22.8219 12.825C23.7875 13.0781 24.5 13.9563 24.5 15C24.5 16.2437 23.4937 17.25 22.25 17.25H13.75C11.6781 17.25 10 18.9281 10 21ZM13.8531 12.75H15V13.4406C15 13.75 15.25 14 15.5594 14C15.6844 14 15.8031 13.9594 15.9031 13.8813L17.8031 12.4031C17.9281 12.3062 18 12.1562 18 12C18 11.8438 17.9281 11.6938 17.8031 11.5969L15.9031 10.1187C15.8062 10.0437 15.6844 10 15.5594 10C15.25 10 15 10.25 15 10.5594V11.25H13.8531C13.5563 10.5156 12.8375 10 12 10C10.8969 10 10 10.8969 10 12C10 13.1031 10.8969 14 12 14C12.8406 14 13.5594 13.4844 13.8531 12.75ZM12.75 12C12.75 12.1989 12.671 12.3897 12.5303 12.5303C12.3897 12.671 12.1989 12.75 12 12.75C11.8011 12.75 11.6103 12.671 11.4697 12.5303C11.329 12.3897 11.25 12.1989 11.25 12C11.25 11.8011 11.329 11.6103 11.4697 11.4697C11.6103 11.329 11.8011 11.25 12 11.25C12.1989 11.25 12.3897 11.329 12.5303 11.4697C12.671 11.6103 12.75 11.8011 12.75 12ZM21 11.25C21.1989 11.25 21.3897 11.329 21.5303 11.4697C21.671 11.6103 21.75 11.8011 21.75 12C21.75 12.1989 21.671 12.3897 21.5303 12.5303C21.3897 12.671 21.1989 12.75 21 12.75C20.8011 12.75 20.6103 12.671 20.4697 12.5303C20.329 12.3897 20.25 12.1989 20.25 12C20.25 11.8011 20.329 11.6103 20.4697 11.4697C20.6103 11.329 20.8011 11.25 21 11.25Z" fill="#1E1F24"/>
</svg>
