<svg width="36" height="36" viewBox="0 0 36 36" fill="none" xmlns="http://www.w3.org/2000/svg">
<path d="M11.5 13.3344V11.75C11.5 11.3344 11.1656 11 10.75 11C10.3344 11 10 11.3344 10 11.75V15.25C10 15.6656 10.3344 16 10.75 16H14.25C14.6656 16 15 15.6656 15 15.25C15 14.8344 14.6656 14.5 14.25 14.5H12.5219C13.6781 12.6937 15.7 11.5 18 11.5C21.5906 11.5 24.5 14.4094 24.5 18C24.5 21.5906 21.5906 24.5 18 24.5C16.6719 24.5 15.4406 24.1031 14.4156 23.4219C14.0719 23.1938 13.6063 23.2875 13.375 23.6313C13.1437 23.975 13.2406 24.4406 13.5844 24.6719C14.85 25.5125 16.3688 26 18 26C22.4187 26 26 22.4187 26 18C26 13.5813 22.4187 10 18 10C15.3219 10 12.95 11.3156 11.5 13.3344ZM18 14C17.5844 14 17.25 14.3344 17.25 14.75V18C17.25 18.2 17.3281 18.3906 17.4688 18.5312L19.7188 20.7812C20.0125 21.075 20.4875 21.075 20.7781 20.7812C21.0687 20.4875 21.0719 20.0125 20.7781 19.7219L18.7469 17.6906V14.75C18.7469 14.3344 18.4125 14 17.9969 14H18Z" fill="#62636C"/>
</svg>
