<svg width="36" height="36" viewBox="0 0 36 36" fill="none" xmlns="http://www.w3.org/2000/svg">
<path d="M21.5 12.5C21.5 12.2348 21.6054 11.9804 21.7929 11.7929C21.9804 11.6054 22.2348 11.5 22.5 11.5C22.7652 11.5 23.0196 11.6054 23.2071 11.7929C23.3946 11.9804 23.5 12.2348 23.5 12.5C23.5 12.7652 23.3946 13.0196 23.2071 13.2071C23.0196 13.3946 22.7652 13.5 22.5 13.5C22.2348 13.5 21.9804 13.3946 21.7929 13.2071C21.6054 13.0196 21.5 12.7652 21.5 12.5ZM20.5656 14.0813C20.7781 14.3406 21.0406 14.5563 21.3375 14.7125L20.1875 21.0188C19.8281 21.0625 19.4937 21.1844 19.1969 21.3656L14.7906 17.5062C14.925 17.1969 15 16.8594 15 16.5C15 16.4375 14.9969 16.3719 14.9938 16.3094L20.5656 14.0813ZM22.8125 14.9812C24.0469 14.8281 25 13.775 25 12.5C25 11.1187 23.8813 10 22.5 10C21.1187 10 20 11.1187 20 12.5C20 12.5625 20.0031 12.6281 20.0063 12.6906L14.4344 14.9187C13.9781 14.3562 13.2812 14 12.5 14C11.1187 14 10 15.1188 10 16.5C10 17.8812 11.1187 19 12.5 19C12.9781 19 13.4219 18.8656 13.8 18.6344L18.2094 22.4937C18.075 22.8031 18 23.1406 18 23.5C18 24.8813 19.1187 26 20.5 26C21.8813 26 23 24.8813 23 23.5C23 22.5406 22.4594 21.7063 21.6656 21.2875L22.8125 14.9812ZM19.5 23.5C19.5 23.2348 19.6054 22.9804 19.7929 22.7929C19.9804 22.6054 20.2348 22.5 20.5 22.5C20.7652 22.5 21.0196 22.6054 21.2071 22.7929C21.3946 22.9804 21.5 23.2348 21.5 23.5C21.5 23.7652 21.3946 24.0196 21.2071 24.2071C21.0196 24.3946 20.7652 24.5 20.5 24.5C20.2348 24.5 19.9804 24.3946 19.7929 24.2071C19.6054 24.0196 19.5 23.7652 19.5 23.5ZM12.5 15.5C12.7652 15.5 13.0196 15.6054 13.2071 15.7929C13.3946 15.9804 13.5 16.2348 13.5 16.5C13.5 16.7652 13.3946 17.0196 13.2071 17.2071C13.0196 17.3946 12.7652 17.5 12.5 17.5C12.2348 17.5 11.9804 17.3946 11.7929 17.2071C11.6054 17.0196 11.5 16.7652 11.5 16.5C11.5 16.2348 11.6054 15.9804 11.7929 15.7929C11.9804 15.6054 12.2348 15.5 12.5 15.5Z" fill="#62636C"/>
</svg>
