<svg width="36" height="36" viewBox="0 0 36 36" fill="none" xmlns="http://www.w3.org/2000/svg">
<path d="M18.4844 10.1781C18.2031 9.94062 17.7937 9.94062 17.5125 10.1781L9.2625 17.1781C8.94687 17.4469 8.90937 17.9187 9.175 18.2344C9.44062 18.55 9.91562 18.5875 10.2312 18.3219L11 17.6719V23.5C11 24.8813 12.1187 26 13.5 26H22.5C23.8812 26 25 24.8813 25 23.5V17.6719L25.7656 18.3219C26.0812 18.5906 26.5562 18.55 26.8219 18.2344C27.0875 17.9187 27.05 17.4437 26.7344 17.1781L18.4844 10.1781ZM12.5 23.5V16.4L18 11.7344L23.5 16.4V23.5C23.5 24.0531 23.0531 24.5 22.5 24.5H21V19.75C21 19.0594 20.4406 18.5 19.75 18.5H16.25C15.5594 18.5 15 19.0594 15 19.75V24.5H13.5C12.9469 24.5 12.5 24.0531 12.5 23.5ZM16.5 24.5V20H19.5V24.5H16.5Z" fill="#62636C"/>
</svg>
