<svg width="36" height="36" viewBox="0 0 36 36" fill="none" xmlns="http://www.w3.org/2000/svg">
<path d="M12.5 12.5V15.5H15.5V12.5H12.5ZM11 12.5C11 11.6719 11.6719 11 12.5 11H15.5C16.3281 11 17 11.6719 17 12.5V15.5C17 16.3281 16.3281 17 15.5 17H12.5C11.6719 17 11 16.3281 11 15.5V12.5ZM12.5 20.5V23.5H15.5V20.5H12.5ZM11 20.5C11 19.6719 11.6719 19 12.5 19H15.5C16.3281 19 17 19.6719 17 20.5V23.5C17 24.3281 16.3281 25 15.5 25H12.5C11.6719 25 11 24.3281 11 23.5V20.5ZM23.5 12.5H20.5V15.5H23.5V12.5ZM20.5 11H23.5C24.3281 11 25 11.6719 25 12.5V15.5C25 16.3281 24.3281 17 23.5 17H20.5C19.6719 17 19 16.3281 19 15.5V12.5C19 11.6719 19.6719 11 20.5 11ZM20.5 20.5V23.5H23.5V20.5H20.5ZM19 20.5C19 19.6719 19.6719 19 20.5 19H23.5C24.3281 19 25 19.6719 25 20.5V23.5C25 24.3281 24.3281 25 23.5 25H20.5C19.6719 25 19 24.3281 19 23.5V20.5Z" fill="#62636C"/>
</svg>
